#N canvas 956 93 199 150 10;
#X obj -138 81 *~;
#X obj -107 115 dac~;
#X obj -55 82 *~;
#X obj -138 32 osc~ 200;
#X obj -54 32 osc~ 200;
#X obj -138 5 r freqLeft;
#X obj -123 54 r ampLeft;
#X obj -54 4 r freqRight;
#X obj -41 56 r ampRight;
#X connect 0 0 1 0;
#X connect 2 0 1 1;
#X connect 3 0 0 0;
#X connect 4 0 2 0;
#X connect 5 0 3 0;
#X connect 6 0 0 1;
#X connect 7 0 4 0;
#X connect 8 0 2 1;
