#N canvas 983 307 907 430 10;
#X floatatom 100 -52 5 0 1000 0 - - -;
#X obj 100 -29 * 0.2;
#X floatatom 99 -7 5 0 0 0 - - -;
#X floatatom 215 -51 5 0 0 0 - - -;
#X msg -39 95 0 \, \$1 \$2 0 \, 0 \$2 \$3;
#X obj 23 -7 +;
#X obj -39 64 pack f f f;
#X obj 219 -4 +;
#X obj 140 63 pack f f f f;
#X msg 140 95 0 \, \$1 \$2 \$3 \, 0 \$2 \$4;
#X obj 21 194 *~;
#X obj 146 193 *~;
#X obj 80 232 dac~;
#X obj 70 155 osc~ 120;
#X obj 218 148 vline~;
#X obj -75 160 vline~;
#X obj 188 23 +;
#X obj 215 -74 r soa;
#X obj 100 -75 r duration;
#X obj -39 -74 r intensity;
#X msg -101 -43 bang;
#X obj -101 -72 r bang;
#X obj 145 122 send right;
#X obj -27 119 send left;
#X obj 4 13 t b f;
#X floatatom 73 61 5 0 0 0 - - -;
#X floatatom 219 22 5 0 0 0 - - -;
#X obj 214 -29 t b f;
#X obj -75 139 spigot;
#X msg -102 96 0;
#X msg -74 96 1;
#X obj -101 13 t b b;
#X obj 219 126 spigot;
#X msg 305 96 1;
#X msg 277 96 0;
#X obj 276 21 t b b;
#X floatatom -39 -11 5 0 0 0 - - -;
#X obj -39 13 t b f;
#X connect 0 0 1 0;
#X connect 0 0 5 0;
#X connect 0 0 16 1;
#X connect 1 0 2 0;
#X connect 2 0 5 1;
#X connect 2 0 6 1;
#X connect 2 0 8 1;
#X connect 2 0 7 0;
#X connect 3 0 27 0;
#X connect 4 0 23 0;
#X connect 4 0 28 0;
#X connect 5 0 24 0;
#X connect 5 0 6 2;
#X connect 6 0 4 0;
#X connect 7 0 8 2;
#X connect 7 0 16 0;
#X connect 7 0 26 0;
#X connect 8 0 9 0;
#X connect 9 0 22 0;
#X connect 9 0 32 0;
#X connect 10 0 12 0;
#X connect 11 0 12 1;
#X connect 13 0 11 0;
#X connect 13 0 10 0;
#X connect 14 0 11 1;
#X connect 15 0 10 1;
#X connect 16 0 8 3;
#X connect 17 0 3 0;
#X connect 18 0 0 0;
#X connect 19 0 36 0;
#X connect 20 0 31 0;
#X connect 20 0 35 0;
#X connect 20 0 36 0;
#X connect 21 0 20 0;
#X connect 24 0 6 0;
#X connect 24 0 8 0;
#X connect 24 1 25 0;
#X connect 27 0 7 0;
#X connect 27 0 8 0;
#X connect 27 1 7 1;
#X connect 28 0 15 0;
#X connect 29 0 28 1;
#X connect 30 0 28 1;
#X connect 31 0 29 0;
#X connect 31 1 30 0;
#X connect 31 1 6 0;
#X connect 32 0 14 0;
#X connect 33 0 32 1;
#X connect 34 0 32 1;
#X connect 35 0 34 0;
#X connect 35 1 33 0;
#X connect 35 1 8 0;
#X connect 36 0 8 0;
#X connect 36 0 37 0;
#X connect 37 0 6 0;
#X connect 37 0 8 0;
#X connect 37 1 6 0;
#X connect 37 1 8 0;
